<svg width="20" height="20" viewBox="0 0 20 20" fill="none" xmlns="http://www.w3.org/2000/svg">
<path d="M9.89587 17.0833C9.96532 17.0833 10.0452 17.066 10.1355 17.0312C10.2257 16.9965 10.2987 16.9514 10.3542 16.8958L17.375 9.85417C17.5556 9.67361 17.691 9.46875 17.7813 9.23958C17.8716 9.01042 17.9167 8.77778 17.9167 8.54167C17.9167 8.30556 17.8716 8.06944 17.7813 7.83333C17.691 7.59722 17.5556 7.38889 17.375 7.20833L13.625 3.45833C13.4445 3.27778 13.2362 3.14236 13 3.05208C12.7639 2.96181 12.5278 2.91667 12.2917 2.91667C12.0556 2.91667 11.823 2.96181 11.5938 3.05208C11.3646 3.14236 11.1598 3.27778 10.9792 3.45833L10.6042 3.83333L12.2917 5.54167C12.4723 5.73611 12.632 5.96181 12.7709 6.21875C12.9098 6.47569 12.9792 6.75694 12.9792 7.0625C12.9792 7.59028 12.7743 8.05555 12.3646 8.45833C11.9549 8.86111 11.4862 9.0625 10.9584 9.0625C10.6112 9.0625 10.323 9.01042 10.0938 8.90625C9.86462 8.80208 9.65282 8.65278 9.45837 8.45833L7.93754 6.9375L4.16671 10.7083C4.09726 10.7778 4.04865 10.8507 4.02087 10.9271C3.9931 11.0035 3.97921 11.0833 3.97921 11.1667C3.97921 11.3472 4.03824 11.4965 4.15629 11.6146C4.27435 11.7326 4.42365 11.7917 4.60421 11.7917C4.68754 11.7917 4.7674 11.7708 4.84379 11.7292C4.92018 11.6875 4.98615 11.6389 5.04171 11.5833L7.91671 8.70833L8.79171 9.58333L5.93754 12.4375C5.8681 12.5069 5.81949 12.5833 5.79171 12.6667C5.76393 12.75 5.75004 12.8333 5.75004 12.9167C5.75004 13.0833 5.81254 13.2292 5.93754 13.3542C6.06254 13.4792 6.20837 13.5417 6.37504 13.5417C6.45837 13.5417 6.53824 13.5243 6.61462 13.4896C6.69101 13.4549 6.75699 13.4097 6.81254 13.3542L9.68754 10.4792L10.5625 11.3542L7.70837 14.2083C7.65282 14.2639 7.60768 14.3368 7.57296 14.4271C7.53824 14.5174 7.52087 14.6042 7.52087 14.6875C7.52087 14.8542 7.58337 15 7.70837 15.125C7.83337 15.25 7.97921 15.3125 8.14587 15.3125C8.22921 15.3125 8.3056 15.2986 8.37504 15.2708C8.44449 15.2431 8.51393 15.1944 8.58337 15.125L11.4584 12.25L12.3334 13.125L9.45837 16C9.38893 16.0694 9.34032 16.1458 9.31254 16.2292C9.28476 16.3125 9.27087 16.3889 9.27087 16.4583C9.27087 16.6528 9.32643 16.8056 9.43754 16.9167C9.54865 17.0278 9.70143 17.0833 9.89587 17.0833ZM9.89587 18.3333C9.43754 18.3333 9.02782 18.1632 8.66671 17.8229C8.3056 17.4826 8.09032 17.0625 8.02087 16.5625C7.54865 16.4931 7.15282 16.2986 6.83337 15.9792C6.51393 15.6597 6.31949 15.2639 6.25004 14.7917C5.77782 14.7222 5.38546 14.5243 5.07296 14.1979C4.76046 13.8715 4.56949 13.4792 4.50004 13.0208C3.98615 12.9514 3.56254 12.7431 3.22921 12.3958C2.89587 12.0486 2.72921 11.6319 2.72921 11.1458C2.72921 10.9097 2.77435 10.6736 2.86462 10.4375C2.9549 10.2014 3.09032 9.99305 3.27087 9.8125L7.93754 5.14583L10.2292 7.4375C10.3403 7.54861 10.4618 7.63542 10.5938 7.69792C10.7257 7.76042 10.8542 7.79167 10.9792 7.79167C11.1598 7.79167 11.3299 7.7118 11.4896 7.55208C11.6493 7.39236 11.7292 7.22222 11.7292 7.04167C11.7292 6.95833 11.7049 6.86458 11.6563 6.76042C11.6077 6.65625 11.5278 6.54861 11.4167 6.4375L8.43754 3.45833C8.25699 3.27778 8.04865 3.14236 7.81254 3.05208C7.57643 2.96181 7.34032 2.91667 7.10421 2.91667C6.8681 2.91667 6.63546 2.96181 6.40629 3.05208C6.17712 3.14236 5.97226 3.27778 5.79171 3.45833L2.62504 6.625C2.4306 6.81944 2.29518 7.0243 2.21879 7.23958C2.1424 7.45486 2.09726 7.69444 2.08337 7.95833C2.06949 8.23611 2.12157 8.50347 2.23962 8.76042C2.35768 9.01736 2.50004 9.25 2.66671 9.45833L1.77087 10.3542C1.4931 10.0486 1.2674 9.68056 1.09379 9.25C0.92018 8.81944 0.833374 8.38194 0.833374 7.9375C0.833374 7.52083 0.913235 7.12153 1.07296 6.73958C1.23268 6.35764 1.45837 6.02083 1.75004 5.72917L4.89587 2.58333C5.20143 2.27778 5.54865 2.05208 5.93754 1.90625C6.32643 1.76042 6.72226 1.6875 7.12504 1.6875C7.52782 1.6875 7.92018 1.76042 8.30212 1.90625C8.68407 2.05208 9.02782 2.27778 9.33337 2.58333L9.70837 2.95833L10.0834 2.58333C10.3889 2.27778 10.7362 2.05208 11.125 1.90625C11.5139 1.76042 11.9098 1.6875 12.3125 1.6875C12.7153 1.6875 13.1077 1.76042 13.4896 1.90625C13.8716 2.05208 14.2153 2.27778 14.5209 2.58333L18.25 6.3125C18.5556 6.61805 18.7848 6.96528 18.9375 7.35417C19.0903 7.74305 19.1667 8.13889 19.1667 8.54167C19.1667 8.94444 19.0903 9.33681 18.9375 9.71875C18.7848 10.1007 18.5556 10.4444 18.25 10.75L11.2292 17.7708C11.0487 17.9514 10.8438 18.0903 10.6146 18.1875C10.3855 18.2847 10.1459 18.3333 9.89587 18.3333Z" fill="white"/>
</svg>
