<svg xmlns="http://www.w3.org/2000/svg" xmlns:xlink="http://www.w3.org/1999/xlink" width="238" height="239" viewBox="0 0 238 239">
    <defs>
        <path id="a" d="M118.868.264C53.219.264 0 53.576 0 119.34c0 65.763 53.22 119.076 118.868 119.076 65.65 0 118.869-53.313 118.869-119.076 0-65.764-53.22-119.076-118.869-119.076z"/>
        <linearGradient id="b" x1="50%" x2="50%" y1="22.954%" y2="75.504%">
            <stop offset="0%" stop-color="#FBF2CA"/>
            <stop offset="100%" stop-color="#FFFFF0"/>
        </linearGradient>
    </defs>
    <g fill="none" fill-rule="evenodd">
        <g transform="translate(0 .528)">
            <mask id="c" fill="#fff">
                <use xlink:href="#a"/>
            </mask>
            <path fill="url(#b)" d="M118.868.264C53.219.264 0 53.576 0 119.34c0 65.763 53.22 119.076 118.868 119.076 65.65 0 118.869-53.313 118.869-119.076 0-65.764-53.22-119.076-118.869-119.076z" mask="url(#c)"/>
        </g>
        <path fill="#FFDF00" d="M193.834 218.9c0 6.212-5.025 11.247-11.226 11.247-6.2 0-11.226-5.035-11.226-11.246s5.026-11.245 11.226-11.245c6.2 0 11.226 5.034 11.226 11.245M80.508 26.592c0 4.675-3.783 8.466-8.45 8.466-4.668 0-8.451-3.791-8.451-8.466 0-4.675 3.783-8.466 8.45-8.466 4.668 0 8.451 3.79 8.451 8.466M224.82 94.232c0 4.675-3.784 8.466-8.451 8.466-4.668 0-8.45-3.791-8.45-8.466 0-4.675 3.782-8.466 8.45-8.466 4.667 0 8.45 3.79 8.45 8.466M50.057 202.167c0 4.675-3.784 8.466-8.451 8.466-4.667 0-8.45-3.79-8.45-8.466 0-4.675 3.783-8.465 8.45-8.465s8.45 3.79 8.45 8.465M14.12 152.27a5.618 5.618 0 0 1-5.613 5.623 5.618 5.618 0 0 1-5.612-5.623 5.618 5.618 0 0 1 5.612-5.624c3.1 0 5.613 2.518 5.613 5.624M162.72 22.613a5.618 5.618 0 0 1-5.613 5.624 5.618 5.618 0 0 1-5.612-5.624 5.618 5.618 0 0 1 5.612-5.623c3.1 0 5.614 2.518 5.614 5.623M27.36 83.94a5.618 5.618 0 0 1-5.613 5.622 5.618 5.618 0 0 1-5.613-5.623 5.618 5.618 0 0 1 5.613-5.623c3.1 0 5.613 2.518 5.613 5.623M122.021 65.774a5.619 5.619 0 0 1-5.613 5.624 5.618 5.618 0 0 1-5.612-5.624 5.618 5.618 0 0 1 5.612-5.623c3.1 0 5.613 2.518 5.613 5.623M225.954 160.545a5.618 5.618 0 0 1-5.614 5.623 5.618 5.618 0 0 1-5.612-5.623 5.618 5.618 0 0 1 5.612-5.623c3.1 0 5.614 2.517 5.614 5.623M100.177 223.888a5.618 5.618 0 0 1-5.613 5.623 5.618 5.618 0 0 1-5.612-5.623 5.618 5.618 0 0 1 5.612-5.623c3.1 0 5.613 2.518 5.613 5.623"/>
        <path fill="#0D98FF" d="M198.493 142.526c0 13.312-5.338 24.103-11.923 24.103-6.584 0-11.922-10.791-11.922-24.103 0-13.312 5.338-24.103 11.922-24.103 6.585 0 11.923 10.791 11.923 24.103"/>
        <path fill="#FFDF00" d="M104.478 40.492s24.561-.985 34.605 3.832l-3.58 1.423-23.169-3.174-7.856-2.081z"/>
        <path fill="#FFDF00" d="M172.472 110.558s-5.423-67.8-61.709-67.8h19.298s43.891-4.982 55.304 68.238l-12.893-.438z"/>
        <path fill="#EAC800" d="M168.694 110.558s-5.423-67.8-61.71-67.8h19.298s43.892-4.982 55.304 68.238l-12.892-.438z"/>
        <path fill="#0064D2" d="M195.201 142.526c0 19.35-8.722 35.033-19.483 35.033-2.354 0-8.334.792-10.423-.584-7.46-4.911-9.059-19.334-9.059-34.449 0-14.972-.212-28.996 7.137-34.01 2.148-1.466 9.912-1.023 12.345-1.023 10.76 0 19.483 15.685 19.483 35.033"/>
        <path fill="#005696" d="M187.31 142.526c0 19.35-8.722 35.033-19.483 35.033-10.759 0-19.482-15.684-19.482-35.033 0-19.348 8.723-35.033 19.482-35.033 10.761 0 19.483 15.685 19.483 35.033"/>
        <path fill="#004F7F" d="M180.01 142.526c0 13.312-5.339 24.103-11.924 24.103-6.584 0-11.922-10.791-11.922-24.103 0-13.312 5.338-24.103 11.922-24.103 6.585 0 11.923 10.791 11.923 24.103"/>
        <path fill="#EAC800" d="M163.18 134.082c0 27.593-22.33 49.96-49.874 49.96-27.545 0-49.873-22.367-49.873-49.96s22.328-49.96 49.873-49.96c27.544 0 49.873 22.367 49.873 49.96"/>
        <path fill="#FFDF00" d="M171.018 134.082c0 27.593-22.329 49.96-49.873 49.96-27.545 0-49.873-22.367-49.873-49.96s22.328-49.96 49.873-49.96c27.544 0 49.873 22.367 49.873 49.96"/>
        <path fill="#005696" d="M83.509 142.526c0 19.35-8.722 35.033-19.483 35.033-2.354 0-8.334.792-10.422-.584-7.46-4.911-9.06-19.334-9.06-34.449 0-14.972-.212-28.996 7.137-34.01 2.148-1.466 9.912-1.023 12.345-1.023 10.76 0 19.483 15.685 19.483 35.033"/>
        <path fill="#0064D2" d="M75.618 142.526c0 19.35-8.722 35.033-19.483 35.033-10.759 0-19.481-15.684-19.481-35.033 0-19.348 8.722-35.033 19.481-35.033 10.76 0 19.483 15.685 19.483 35.033"/>
        <path fill="#0D98FF" d="M60.5 142.526c0 13.312-6.255 24.103-13.971 24.103s-13.972-10.791-13.972-24.103c0-13.312 6.256-24.103 13.972-24.103 7.716 0 13.97 10.791 13.97 24.103"/>
        <path fill="#F4F4F4" d="M46.529 142.526c0 6.656-3.128 12.052-6.986 12.052-3.858 0-6.986-5.396-6.986-12.052 0-6.655 3.128-12.051 6.986-12.051 3.858 0 6.986 5.396 6.986 12.051"/>
        <path fill="#0D98FF" d="M131.467 212.155h-4.497c-4.429 0-8.052-3.63-8.052-8.066v-1.385c0-4.436 3.623-8.066 8.052-8.066h4.497c4.429 0 8.052 3.63 8.052 8.066v1.385c0 4.437-3.623 8.066-8.052 8.066"/>
        <path fill="#FFDF00" d="M122.852 206.188c-26.667 0-45.953-5.833-57.324-17.339-8.76-8.86-9.267-17.811-9.284-18.188a2.353 2.353 0 0 1 2.24-2.46 2.352 2.352 0 0 1 2.454 2.233c.008.134.556 7.808 8.196 15.371 13.09 12.956 36.437 15.676 53.718 15.676a2.351 2.351 0 0 1 2.35 2.353c0 1.3-1.052 2.354-2.35 2.354"/>
        <path fill="#EAC800" d="M62.038 114.5s9.722-71.74 66.007-71.74h-19.298s-47.603-2.138-59.015 71.083l12.306.656z"/>
        <path fill="#FFDF00" d="M58.657 114.5s9.722-71.74 66.007-71.74l-16.563-2.269s-50.338.131-61.75 73.352l12.306.656z"/>
        <path fill="#0064D2" d="M89.344 131.554c0-.76.411-1.457.98-1.868 8.03-5.859 10.4-7.95 10.4-10.482 0-1.837-1.676-2.755-3.446-2.755-1.738 0-3.192.538-4.457 1.425a1.91 1.91 0 0 1-1.106.348c-1.107 0-2.024-.886-2.024-1.995 0-.664.38-1.266.854-1.615 1.96-1.488 4.362-2.153 6.67-2.153 4.49 0 8.06 2.533 8.06 6.745 0 3.61-2.97 6.745-8.63 10.735h7.019c1.075 0 1.991.887 1.991 1.963a2.006 2.006 0 0 1-1.991 1.996H91.683a2.356 2.356 0 0 1-2.339-2.344M117.067 125.57v-8.804l-5.69 8.803h5.69zm7.429 1.963c0 1.14-.918 1.994-2.024 1.994h-.916v2.343c0 1.204-.98 2.249-2.213 2.249-1.265 0-2.276-1.045-2.276-2.249v-2.343h-7.84c-1.328 0-2.465-1.108-2.465-2.47 0-.506.157-.95.379-1.33l7.208-11.336c.695-1.078 1.896-1.837 3.319-1.837 2.15 0 3.888 1.773 3.888 3.926v9.09h.885c1.106 0 2.055.854 2.055 1.963zM125.506 133.39c0-.157.032-.348.095-.443l6.733-20.108a1.34 1.34 0 0 1 1.296-.918c.759 0 1.391.601 1.391 1.36 0 .16-.031.35-.095.444l-6.733 20.11a1.34 1.34 0 0 1-1.296.918c-.758 0-1.391-.602-1.391-1.363M140.458 131.87c0-.316.095-.6.19-.918l6.29-14.218h-8.851c-1.074 0-1.992-.887-1.992-1.964 0-1.108.918-1.994 1.992-1.994h12.14c1.169 0 2.149.95 2.149 2.152 0 .318-.064.602-.19.856l-7.396 16.973c-.317.823-1.139 1.362-2.087 1.362a2.255 2.255 0 0 1-2.245-2.249"/>
        <path fill="#0D98FF" d="M95.397 147.296c.02.122.23 1.305.894 3.043.995 2.599 3.03 6.481 7.048 9.74 2.005 1.625 4.501 3.08 7.55 4.117 3.047 1.038 6.64 1.657 10.843 1.656 5.234.003 9.566-1.043 13.07-2.65a25.394 25.394 0 0 0 10.613-9.06c2.007-3.018 2.71-5.427 2.759-5.593a2.376 2.376 0 0 0-1.626-2.94 2.37 2.37 0 0 0-2.934 1.628l1.06.305-1.058-.315-.002.01 1.06.305-1.058-.315c0 .018-1.085 3.581-4.316 7.013a20.568 20.568 0 0 1-6.607 4.702c-2.85 1.28-6.42 2.156-10.961 2.158-4.99-.002-8.761-.97-11.663-2.358a18.548 18.548 0 0 1-5.211-3.683 18.648 18.648 0 0 1-3.922-5.885 16.599 16.599 0 0 1-.703-2.014c-.066-.239-.108-.42-.134-.534l-.023-.119-.004-.019-.984.18.986-.168-.002-.012-.984.18.986-.168a2.372 2.372 0 1 0-4.677.796"/>
    </g>
</svg>
