<svg xmlns="http://www.w3.org/2000/svg" xmlns:xlink="http://www.w3.org/1999/xlink" width="237" height="236" viewBox="0 0 237 236">
    <defs>
        <path id="a" d="M118.37.26C52.995.26 0 52.871 0 117.77c0 64.898 52.996 117.509 118.37 117.509 65.372 0 118.368-52.611 118.368-117.51C236.738 52.872 183.742.26 118.369.26z"/>
        <linearGradient id="b" x1="50%" x2="50%" y1="22.954%" y2="75.504%">
            <stop offset="0%" stop-color="#FBF2CA"/>
            <stop offset="100%" stop-color="#FFFFF0"/>
        </linearGradient>
    </defs>
    <g fill="none" fill-rule="evenodd">
        <g transform="translate(0 .521)">
            <mask id="c" fill="#fff">
                <use xlink:href="#a"/>
            </mask>
            <path fill="url(#b)" d="M118.37.26C52.995.26 0 52.871 0 117.77c0 64.898 52.996 117.509 118.37 117.509 65.372 0 118.368-52.611 118.368-117.51C236.738 52.872 183.742.26 118.369.26z" mask="url(#c)"/>
        </g>
        <path fill="#FFDF00" d="M77.66 43.257c0 6.128-5.004 11.097-11.179 11.097-6.174 0-11.18-4.969-11.18-11.097 0-6.13 5.006-11.098 11.18-11.098 6.175 0 11.18 4.969 11.18 11.098M189.723 212.094c0 6.13-5.004 11.098-11.178 11.098-6.175 0-11.18-4.969-11.18-11.098 0-6.13 5.005-11.098 11.18-11.098 6.174 0 11.178 4.969 11.178 11.098M186.77 76.972c0 3.065-2.502 5.55-5.589 5.55-3.087 0-5.589-2.485-5.589-5.55s2.502-5.549 5.59-5.549c3.086 0 5.589 2.484 5.589 5.55M60.205 213.403c0 3.065-2.502 5.549-5.59 5.549-3.087 0-5.589-2.484-5.589-5.55 0-3.063 2.502-5.548 5.59-5.548 3.087 0 5.589 2.485 5.589 5.549M225.664 120.477c0 3.064-2.503 5.55-5.59 5.55-3.087 0-5.59-2.486-5.59-5.55 0-3.065 2.503-5.55 5.59-5.55 3.087 0 5.59 2.485 5.59 5.55M132.058 204.895c0 3.065-2.504 5.55-5.59 5.55-3.087 0-5.589-2.485-5.589-5.55 0-3.064 2.502-5.549 5.589-5.549 3.086 0 5.59 2.485 5.59 5.55M27.245 99.536c0 3.065-2.502 5.549-5.59 5.549-3.086 0-5.588-2.484-5.588-5.55 0-3.064 2.502-5.548 5.589-5.548 3.087 0 5.59 2.484 5.59 5.549M124.807 29.514c0 3.065-2.504 5.55-5.59 5.55-3.087 0-5.59-2.485-5.59-5.55s2.503-5.549 5.59-5.549c3.086 0 5.59 2.484 5.59 5.55"/>
        <path fill="#007AE8" d="M118.955 86.752c-11.388-6.542-15.292-21.062-8.702-32.368 6.59-11.305 21.217-15.18 32.605-8.64a2.974 2.974 0 0 1 1.097 4.08 3.02 3.02 0 0 1-4.109 1.088c-8.518-4.894-19.459-1.995-24.388 6.462-4.93 8.456-2.01 19.318 6.509 24.211a2.974 2.974 0 0 1 1.097 4.078 3.019 3.019 0 0 1-4.109 1.09"/>
        <path fill="#EAC800" d="M118.225 92.064c-3.706.737-7.313-1.648-8.054-5.327-.744-3.68 1.66-7.26 5.366-7.998 3.706-.737 7.313 1.649 8.055 5.328.743 3.68-1.66 7.26-5.367 7.997m25.95 19.599l-9.679-31.368c-2.892-9.375-12.467-15.05-22.152-13.13L79.67 73.642a11.938 11.938 0 0 0-7.933 5.575l-45.403 75.925c-3.367 5.63-1.499 12.906 4.173 16.25l50.728 29.896c5.673 3.344 13 1.489 16.37-4.142l45.42-75.956a11.785 11.785 0 0 0 1.15-9.527"/>
        <path fill="#FFDF00" d="M125.417 92.064c-3.707.737-7.313-1.648-8.055-5.327-.743-3.68 1.66-7.26 5.367-7.998 3.706-.737 7.312 1.649 8.055 5.328.742 3.68-1.66 7.26-5.367 7.997m25.95 19.599l-9.679-31.368c-2.893-9.375-12.468-15.05-22.152-13.13l-32.675 6.477a11.938 11.938 0 0 0-7.933 5.575l-45.404 75.925c-3.367 5.63-1.498 12.906 4.174 16.25l50.727 29.896c5.673 3.344 13.002 1.489 16.37-4.142l45.421-75.956a11.785 11.785 0 0 0 1.15-9.527"/>
        <path fill="#0064D2" d="M99.035 156.736c-1.422 2.46-2.263 4.418-2.525 5.88-.26 1.46.096 2.467 1.071 3.023 1.872 1.067 4.22-.84 7.042-5.718 2.798-4.84 3.262-7.793 1.39-8.86-.975-.557-2.027-.364-3.155.577-1.127.94-2.401 2.64-3.823 5.098zm12.993 7.329c-2.565 4.433-5.361 7.274-8.39 8.52-3.029 1.247-6.22.914-9.574-.997-3.218-1.835-5.042-4.398-5.47-7.693-.43-3.295.605-7.1 3.103-11.418 5.116-8.848 11.038-11.355 17.767-7.52 3.296 1.879 5.163 4.468 5.6 7.768.44 3.3-.573 7.08-3.036 11.34zm7.3-35.224L71.05 157.777l-7.02-4.001 48.277-28.937 7.021 4.002zm-40.44-6.137c-1.423 2.458-2.264 4.418-2.525 5.878-.262 1.46.096 2.468 1.07 3.024 1.873 1.067 4.22-.84 7.041-5.718 2.8-4.84 3.263-7.794 1.39-8.86-.975-.556-2.026-.364-3.152.576-1.128.941-2.403 2.64-3.825 5.1zm12.992 7.328c-2.575 4.452-5.377 7.303-8.406 8.549-3.029 1.247-6.22.914-9.575-.997-3.218-1.834-5.04-4.398-5.47-7.693-.428-3.294.611-7.11 3.12-11.446 5.117-8.849 11.039-11.355 17.767-7.52 3.297 1.878 5.164 4.467 5.601 7.767.439 3.3-.574 7.08-3.037 11.34zM125.417 92.064c-3.707.737-7.313-1.648-8.055-5.327-.743-3.68 1.66-7.26 5.367-7.998 3.706-.737 7.312 1.649 8.055 5.328.742 3.68-1.66 7.26-5.367 7.997m-3.637-18.028c-6.322 1.257-10.421 7.365-9.155 13.642 1.265 6.277 7.418 10.346 13.74 9.09 6.324-1.258 10.423-7.365 9.156-13.643-1.266-6.276-7.418-10.346-13.74-9.089"/>
        <path fill="#007AE8" d="M118.955 86.752a2.975 2.975 0 0 1-1.097-4.078 3.02 3.02 0 0 1 4.109-1.089c8.52 4.894 19.459 1.995 24.389-6.461 4.93-8.457 2.01-19.318-6.51-24.212a2.973 2.973 0 0 1-1.096-4.078 3.018 3.018 0 0 1 4.108-1.09c11.388 6.543 15.292 21.063 8.702 32.37-6.59 11.304-21.216 15.18-32.605 8.638"/>
        <path fill="#007AE8" d="M125.38 90.1c-1.913-3.469.113-8.222 4.522-10.618 4.41-2.395 9.534-1.526 11.445 1.942 1.913 3.468-.112 8.221-4.522 10.617-4.409 2.396-9.534 1.527-11.446-1.941m63.475 85.314l-43.51-79.085c6.394-5.582 8.832-13.751 5.386-20.002-4.158-7.544-15.305-9.434-24.896-4.223-9.591 5.212-13.995 15.55-9.837 23.093 3.446 6.252 11.692 8.616 19.873 6.278l21.424 38.91 22.182 40.226a2.173 2.173 0 0 0 2.961.837l2.231-1.212 3.292-1.789a2.225 2.225 0 0 0 .894-3.033"/>
        <path fill="#007AE8" d="M168.947 145.002l-20.752 11.206a2.162 2.162 0 0 0-.875 2.943l.863 1.575a2.193 2.193 0 0 0 2.964.87l2.516-1.359s2.392-.184 2.97.87l1.578 2.881a2.165 2.165 0 0 1-.877 2.95l-2.515 1.359a2.16 2.16 0 0 0-.876 2.941l.557 1.016a2.194 2.194 0 0 0 2.963.87l2.516-1.36a2.199 2.199 0 0 1 2.97.872l1.58 2.88a2.167 2.167 0 0 1-.878 2.95l-2.516 1.358a2.16 2.16 0 0 0-.875 2.942l.863 1.576a2.193 2.193 0 0 0 2.964.869l20.753-11.207-15.893-29.002z"/>
        <path fill="#007AE8" d="M150.124 161.856h4.854l-.54-1.607-2.097-.277zM156.317 173.378h4.854l-.54-1.606-2.097-.278zM163.069 185.475h4.854l-.54-1.607-2.097-.276z"/>
        <path fill="#0D98FF" d="M130.174 90.1c-1.913-3.469.113-8.222 4.522-10.618 4.41-2.395 9.535-1.526 11.446 1.942 1.912 3.468-.112 8.221-4.522 10.617-4.41 2.396-9.535 1.527-11.446-1.941m63.475 85.314L150.138 96.33c6.395-5.582 8.832-13.751 5.386-20.002-4.158-7.544-15.304-9.434-24.895-4.223-9.592 5.212-13.996 15.55-9.838 23.093 3.447 6.252 11.692 8.616 19.874 6.278l21.423 38.91 22.182 40.226a2.174 2.174 0 0 0 2.962.837l2.23-1.212 3.293-1.789a2.225 2.225 0 0 0 .894-3.033"/>
        <path fill="#0D98FF" d="M173.741 145.002l-20.752 11.206a2.163 2.163 0 0 0-.875 2.943l.864 1.575a2.193 2.193 0 0 0 2.963.87l2.516-1.359a2.198 2.198 0 0 1 2.97.87l1.579 2.881a2.165 2.165 0 0 1-.878 2.95l-2.515 1.359a2.16 2.16 0 0 0-.876 2.941l.557 1.016a2.194 2.194 0 0 0 2.964.87l2.515-1.36a2.2 2.2 0 0 1 2.972.872l1.578 2.88a2.167 2.167 0 0 1-.878 2.95l-2.515 1.358a2.16 2.16 0 0 0-.876 2.942l.863 1.576a2.194 2.194 0 0 0 2.965.869l20.752-11.207-15.893-29.002z"/>
        <path fill="#007AE8" d="M142.858 45.745a3.02 3.02 0 0 0-4.108 1.089 2.974 2.974 0 0 0 1.097 4.078c8.518 4.894 11.438 15.755 6.508 24.212-2.092 3.59-5.274 6.167-8.888 7.582l2.73 5.35a23.69 23.69 0 0 0 11.364-9.943c6.59-11.305 2.685-25.826-8.703-32.368"/>
    </g>
</svg>
