<svg xmlns="http://www.w3.org/2000/svg" xmlns:xlink="http://www.w3.org/1999/xlink" width="238" height="239" viewBox="0 0 238 239">
    <defs>
        <path id="a" d="M118.783.264C54.166.31.046 54.525 0 119.254c-.046 65.792 53.171 119.143 118.832 119.162h.121c64.617-.046 118.738-54.26 118.784-118.99C237.783 53.634 184.564.283 118.903.264h-.12z"/>
        <linearGradient id="b" x1="50%" x2="50%" y1="22.954%" y2="75.504%">
            <stop offset="0%" stop-color="#FBF2CA"/>
            <stop offset="100%" stop-color="#FFFFF0"/>
        </linearGradient>
    </defs>
    <g fill="none" fill-rule="evenodd">
        <g transform="translate(0 .528)">
            <mask id="c" fill="#fff">
                <use xlink:href="#a"/>
            </mask>
            <path fill="url(#b)" d="M118.783.264C54.166.31.046 54.525 0 119.254c-.046 65.792 53.171 119.143 118.832 119.162h.121c64.617-.046 118.738-54.26 118.784-118.99C237.783 53.634 184.564.283 118.903.264h-.12z" mask="url(#c)"/>
        </g>
        <path fill="#FFDF00" d="M140.214 43.613c0 6.21-5.026 11.245-11.227 11.245-6.2 0-11.225-5.035-11.225-11.245 0-6.212 5.025-11.246 11.225-11.246 6.2 0 11.227 5.034 11.227 11.246M40.79 44.275c0 4.675-3.784 8.466-8.451 8.466-4.667 0-8.45-3.79-8.45-8.466 0-4.674 3.783-8.464 8.45-8.464s8.45 3.79 8.45 8.464M177.819 176.24c0 4.674-3.784 8.465-8.451 8.465-4.667 0-8.45-3.79-8.45-8.466 0-4.674 3.783-8.465 8.45-8.465s8.45 3.79 8.45 8.465M14.12 122.526a5.618 5.618 0 0 1-5.613 5.623 5.618 5.618 0 0 1-5.612-5.623 5.618 5.618 0 0 1 5.612-5.624c3.1 0 5.613 2.518 5.613 5.624M103.805 221.996a5.618 5.618 0 0 1-5.613 5.623 5.618 5.618 0 0 1-5.614-5.623 5.618 5.618 0 0 1 5.614-5.624c3.1 0 5.613 2.518 5.613 5.624M36.628 169.608a5.618 5.618 0 0 1-5.613 5.623 5.618 5.618 0 0 1-5.613-5.623 5.618 5.618 0 0 1 5.613-5.623c3.1 0 5.613 2.517 5.613 5.623M186.897 18.096a5.618 5.618 0 0 1-5.613 5.623 5.618 5.618 0 0 1-5.613-5.623 5.618 5.618 0 0 1 5.613-5.624c3.1 0 5.613 2.518 5.613 5.624M224.975 149.714a5.618 5.618 0 0 1-5.614 5.623 5.618 5.618 0 0 1-5.613-5.623 5.618 5.618 0 0 1 5.613-5.623c3.1 0 5.614 2.517 5.614 5.623M218.01 57.538a5.618 5.618 0 0 1-5.613 5.623 5.618 5.618 0 0 1-5.613-5.623 5.618 5.618 0 0 1 5.613-5.623c3.1 0 5.613 2.517 5.613 5.623M156.446 219.343a5.618 5.618 0 0 1-5.613 5.623 5.618 5.618 0 0 1-5.613-5.623 5.618 5.618 0 0 1 5.613-5.623c3.1 0 5.613 2.518 5.613 5.623M86.276 19.077a5.618 5.618 0 0 1-5.613 5.623 5.618 5.618 0 0 1-5.613-5.623 5.618 5.618 0 0 1 5.613-5.624c3.1 0 5.613 2.518 5.613 5.624"/>
        <path fill="#EAC800" d="M136.733 184.675l-1.498-.343-.948.928a9.883 9.883 0 0 0-.152-4.102L103.304 58.49c-1.335-5.31-6.714-8.53-12.014-7.194L33.632 66.191c-.087.022-.17.054-.256.079l.177-2.623-4.212 4.75c-2.327 2.385-3.763 6.358-2.89 9.829l30.831 122.668c1.335 5.31 6.714 8.53 12.014 7.194l57.658-14.895a9.836 9.836 0 0 0 4.848-2.89l.003.022 4.928-5.65z"/>
        <path fill="#FFDF00" d="M131.47 188.013l-57.657 14.895c-5.301 1.336-10.68-1.884-12.014-7.194L30.968 73.046c-1.335-5.31 1.88-10.697 7.181-12.034l57.658-14.895c5.3-1.336 10.679 1.883 12.014 7.193l30.83 122.668c1.335 5.31-1.88 10.699-7.18 12.035"/>
        <path fill="#F4F4F4" d="M76.288 59.084L62.6 62.566a1.548 1.548 0 0 1-.76-3l13.688-3.481c.826-.21 1.666.29 1.877 1.118.21.829-.29 1.67-1.117 1.881M106.122 185.54a5.744 5.744 0 0 1-5.338 6.122 5.742 5.742 0 0 1-6.11-5.347 5.745 5.745 0 0 1 5.337-6.121 5.74 5.74 0 0 1 6.11 5.347"/>
        <path fill="#EAC800" d="M40.488 70.525l57.834-13.934a2.942 2.942 0 0 1 3.608 2.138l27.093 109.602a2.948 2.948 0 0 1-2.101 3.56l-56.98 13.891a2.942 2.942 0 0 1-3.609-2.13L38.387 74.094a2.949 2.949 0 0 1 2.101-3.569"/>
        <path fill="#0D98FF" d="M105.368 118.989c0 11.836-9.579 21.432-21.395 21.432-11.816 0-21.396-9.596-21.396-21.432 0-11.837 9.58-21.433 21.396-21.433s21.395 9.596 21.395 21.433"/>
        <path fill="#F4F4F4" d="M74.803 120.904l3.462-.863c1.325-.331 2.115-1.418 1.792-2.72-.324-1.304-1.532-1.892-2.856-1.562l-3.463.864 1.065 4.281zm10.312 3.757c.278.228.47.5.586.967.197.793-.31 1.734-1.193 1.954a1.755 1.755 0 0 1-1.545-.356l-4.735-4.158-2.718.678 1.012 4.073c.22.886-.31 1.832-1.216 2.059-.93.232-1.864-.35-2.084-1.235l-3.056-12.292c-.277-1.116.193-1.902 1.309-2.18l5.508-1.374c3.229-.807 5.731.82 6.45 3.706.618 2.491-.441 4.287-1.836 5.23l3.518 2.928zM92.196 112.018l-3.508.875 1.064 4.283 3.509-.876c1.301-.325 2.069-1.406 1.745-2.709-.319-1.281-1.509-1.897-2.81-1.573m-4.024 12.895l-3.057-12.292c-.278-1.116.194-1.902 1.31-2.18l5.507-1.375c3.369-.84 5.772.984 6.45 3.707.67 2.7-.627 5.423-3.973 6.258l-3.95.986 1.012 4.072c.22.885-.309 1.833-1.215 2.06-.93.231-1.864-.352-2.084-1.236"/>
        <path fill="#005696" d="M194.078 134.297l-55.586-33.304a4.836 4.836 0 0 1-1.663-6.626l21.201-35.51a4.817 4.817 0 0 1 6.615-1.666l55.586 33.305a4.836 4.836 0 0 1 1.663 6.626l-21.201 35.509a4.817 4.817 0 0 1-6.615 1.666"/>
        <path fill="#F4F4F4" d="M170.638 82.16l-12.23-7.326a2.227 2.227 0 0 1-.765-3.052l4.288-7.183a2.22 2.22 0 0 1 3.047-.768l12.229 7.328a2.227 2.227 0 0 1 .765 3.052l-4.288 7.182a2.219 2.219 0 0 1-3.046.768"/>
        <path fill="#FFDF00" d="M160.372 100.573L145.87 91.99a.927.927 0 0 1-.326-1.268l1.543-2.617a.922.922 0 0 1 1.265-.325l14.503 8.581c.44.26.585.828.326 1.267l-1.543 2.617a.923.923 0 0 1-1.266.327M179.968 112.12l-14.502-8.582a.926.926 0 0 1-.326-1.268l1.543-2.617a.922.922 0 0 1 1.265-.325l14.503 8.581c.44.26.585.828.326 1.267l-1.543 2.618a.923.923 0 0 1-1.266.326M199.564 123.667l-14.502-8.582a.926.926 0 0 1-.326-1.268l1.543-2.616a.923.923 0 0 1 1.265-.326l14.503 8.581c.44.26.585.828.326 1.267l-1.543 2.618a.924.924 0 0 1-1.266.326"/>
        <path fill="#0D98FF" d="M173.092 156.526l-63.974-10.14a4.828 4.828 0 0 1-4.01-5.525l6.455-40.868a4.823 4.823 0 0 1 5.518-4.017l63.973 10.14a4.831 4.831 0 0 1 4.01 5.526l-6.454 40.869a4.824 4.824 0 0 1-5.518 4.015"/>
        <path fill="#FFDF00" d="M108.957 116.488l73.502 11.65 1.617-10.24-73.502-11.65zM169.05 146.197a5.573 5.573 0 0 1-6.375 4.641 5.58 5.58 0 0 1-4.633-6.385 5.575 5.575 0 0 1 6.375-4.643 5.582 5.582 0 0 1 4.633 6.387"/>
        <path fill="#F4F4F4" d="M176.127 147.318a5.573 5.573 0 0 1-6.375 4.642 5.58 5.58 0 0 1-4.633-6.386 5.574 5.574 0 0 1 6.375-4.641 5.58 5.58 0 0 1 4.633 6.385"/>
    </g>
</svg>
