<svg xmlns="http://www.w3.org/2000/svg" xmlns:xlink="http://www.w3.org/1999/xlink" width="241" height="239" viewBox="0 0 241 239">
    <defs>
        <path id="a" d="M119.178.264C53.358.264 0 53.576 0 119.34c0 65.763 53.359 119.076 119.178 119.076 65.821 0 119.18-53.313 119.18-119.076 0-65.764-53.359-119.076-119.18-119.076z"/>
        <linearGradient id="b" x1="50%" x2="50%" y1="22.954%" y2="75.504%">
            <stop offset="0%" stop-color="#FBF2CA"/>
            <stop offset="100%" stop-color="#FFFFF0"/>
        </linearGradient>
        <path id="d" d="M.118.03h11.255v11.246H.118z"/>
    </defs>
    <g fill="none" fill-rule="evenodd">
        <g transform="translate(0 .528)">
            <mask id="c" fill="#fff">
                <use xlink:href="#a"/>
            </mask>
            <path fill="url(#b)" d="M119.178.264C53.358.264 0 53.576 0 119.34c0 65.763 53.359 119.076 119.178 119.076 65.821 0 119.18-53.313 119.18-119.076 0-65.764-53.359-119.076-119.18-119.076z" mask="url(#c)"/>
        </g>
        <path fill="#FFDF00" d="M216.242 180.467c0 6.21-5.038 11.245-11.254 11.245-6.217 0-11.257-5.034-11.257-11.245 0-6.211 5.04-11.246 11.257-11.246 6.216 0 11.254 5.035 11.254 11.246M94.656 181.92c0 4.676-3.793 8.466-8.473 8.466-4.679 0-8.472-3.79-8.472-8.466 0-4.674 3.793-8.465 8.472-8.465 4.68 0 8.473 3.79 8.473 8.465M51.515 30.57c0 4.676-3.793 8.466-8.473 8.466-4.679 0-8.472-3.79-8.472-8.465s3.793-8.466 8.472-8.466c4.68 0 8.473 3.79 8.473 8.466M170.474 19.298c0 4.674-3.793 8.465-8.473 8.465-4.679 0-8.472-3.79-8.472-8.465s3.793-8.466 8.472-8.466c4.68 0 8.473 3.79 8.473 8.466M160.173 219.91a5.625 5.625 0 0 1-5.628 5.622 5.624 5.624 0 0 1-5.627-5.623 5.625 5.625 0 0 1 5.627-5.623 5.626 5.626 0 0 1 5.628 5.623M105.085 39.854a5.625 5.625 0 0 1-5.628 5.623 5.624 5.624 0 0 1-5.627-5.623 5.625 5.625 0 0 1 5.627-5.623 5.626 5.626 0 0 1 5.628 5.623M11.503 152.27a5.626 5.626 0 0 1-5.628 5.623 5.626 5.626 0 0 1-5.628-5.623 5.626 5.626 0 0 1 5.628-5.624 5.626 5.626 0 0 1 5.628 5.624M44.688 196.036a5.626 5.626 0 0 1-5.628 5.624 5.626 5.626 0 0 1-5.628-5.624 5.626 5.626 0 0 1 5.628-5.623 5.626 5.626 0 0 1 5.628 5.623M206.19 41.181a5.626 5.626 0 0 1-5.628 5.623 5.625 5.625 0 0 1-5.627-5.623 5.625 5.625 0 0 1 5.627-5.623 5.626 5.626 0 0 1 5.628 5.623"/>
        <g transform="translate(229.109 89.241)">
            <mask id="e" fill="#fff">
                <use xlink:href="#d"/>
            </mask>
            <path fill="#FFDF00" d="M11.374 5.653a5.626 5.626 0 0 1-5.63 5.623A5.625 5.625 0 0 1 .119 5.653 5.625 5.625 0 0 1 5.745.03a5.626 5.626 0 0 1 5.629 5.623" mask="url(#e)"/>
        </g>
        <path fill="#EAC800" d="M197.28 152.146H34.333c-6.262 0-11.338-5.073-11.338-11.33V70.193c0-6.256 5.076-11.329 11.338-11.329H197.28c6.262 0 11.34 5.073 11.34 11.33v70.622c0 6.257-5.078 11.33-11.34 11.33"/>
        <path fill="#FFDF00" d="M203.204 152.146H40.128c-6.228 0-11.275-5.044-11.275-11.265V70.129c0-6.221 5.047-11.265 11.275-11.265h163.076c6.226 0 11.274 5.044 11.274 11.265v70.752c0 6.221-5.048 11.265-11.274 11.265"/>
        <path fill="#F4F4F4" d="M81.422 117.049H34.44a1.488 1.488 0 0 1-1.489-1.488v-9.852c0-.822.667-1.488 1.49-1.488h46.98c.823 0 1.49.666 1.49 1.488v9.852c0 .822-.667 1.488-1.49 1.488M142.81 117.049H95.828a1.488 1.488 0 0 1-1.489-1.488v-9.852c0-.822.667-1.488 1.49-1.488h46.98c.823 0 1.49.666 1.49 1.488v9.852c0 .822-.667 1.488-1.49 1.488M157.316 87.965h-74.67a1.487 1.487 0 0 1-1.487-1.487v-9.853c0-.822.666-1.488 1.488-1.488h74.669c.822 0 1.488.666 1.488 1.488v9.853c0 .821-.666 1.487-1.488 1.487M202.352 117.049H155.37a1.488 1.488 0 0 1-1.488-1.488v-9.852c0-.822.666-1.488 1.488-1.488h46.982c.822 0 1.489.666 1.489 1.488v9.852c0 .822-.667 1.488-1.489 1.488"/>
        <path fill="#0D98FF" d="M202.352 143.922h-59.324a1.488 1.488 0 0 1-1.489-1.488v-12.638c0-.822.667-1.488 1.489-1.488h59.324c.822 0 1.489.666 1.489 1.488v12.638c0 .821-.667 1.488-1.489 1.488"/>
        <path fill="#0064D2" d="M55.845 94.84c8.066 0 14.604-6.533 14.604-14.591 0-8.059-6.538-14.592-14.604-14.592-8.066 0-14.604 6.533-14.604 14.592 0 8.058 6.538 14.592 14.604 14.592"/>
        <path fill="#FFDF00" d="M51.862 80.249a2.656 2.656 0 0 0 2.655-2.654 2.656 2.656 0 0 0-5.31 0 2.657 2.657 0 0 0 2.655 2.654"/>
        <path fill="#FFDF00" d="M61.759 75.09H55v5.16h-6.76v-6.634h-1.69v12.602c0 .366.298.663.664.663h1.432a.664.664 0 0 0 .665-.663v-3.283h13.18v3.283c0 .366.297.663.665.663h1.318a.664.664 0 0 0 .664-.663v-8.18c0-1.629-1.513-2.948-3.38-2.948"/>
        <path fill="#005696" d="M169.44 140.197h6.638l-14.406 42.532h-6.637L144.23 170.97l-11.97 16.13h-6.637l-7.803-8.995 19.207-15.593-10.805-9.414z"/>
        <path fill="#0064D2" d="M176.078 140.197l-14.406 42.532-10.804-11.759-18.607 16.13-7.803-8.995 19.207-15.593-10.805-9.414z"/>
    </g>
</svg>
