<svg xmlns="http://www.w3.org/2000/svg" xmlns:xlink="http://www.w3.org/1999/xlink" width="238" height="239" viewBox="0 0 238 239">
    <defs>
        <path id="a" d="M118.783.264C54.166.31.046 54.525 0 119.254c-.046 65.792 53.171 119.143 118.833 119.162h.121c64.616-.046 118.737-54.26 118.783-118.99C237.783 53.634 184.564.283 118.903.264h-.12z"/>
        <linearGradient id="b" x1="50%" x2="50%" y1="22.954%" y2="75.504%">
            <stop offset="0%" stop-color="#FBF2CA"/>
            <stop offset="100%" stop-color="#FFFFF0"/>
        </linearGradient>
    </defs>
    <g fill="none" fill-rule="evenodd">
        <g transform="translate(0 .528)">
            <mask id="c" fill="#fff">
                <use xlink:href="#a"/>
            </mask>
            <path fill="url(#b)" d="M118.783.264C54.166.31.046 54.525 0 119.254c-.046 65.792 53.171 119.143 118.833 119.162h.121c64.616-.046 118.737-54.26 118.783-118.99C237.783 53.634 184.564.283 118.903.264h-.12z" mask="url(#c)"/>
        </g>
        <path fill="#FFDF00" d="M200.895 212.048c0 6.211-5.026 11.246-11.226 11.246-6.2 0-11.227-5.035-11.227-11.246 0-6.21 5.027-11.245 11.227-11.245s11.226 5.035 11.226 11.245M27.457 168.31c0 6.21-5.027 11.244-11.226 11.244-6.2 0-11.227-5.034-11.227-11.245 0-6.21 5.027-11.245 11.227-11.245s11.226 5.035 11.226 11.245M120.006 17.75c0 4.675-3.784 8.466-8.451 8.466-4.667 0-8.45-3.791-8.45-8.466 0-4.675 3.783-8.466 8.45-8.466s8.45 3.791 8.45 8.466M213.345 135.125c0 4.675-3.783 8.465-8.45 8.465-4.668 0-8.45-3.79-8.45-8.465s3.782-8.466 8.45-8.466c4.667 0 8.45 3.79 8.45 8.466M182.042 43.267a5.618 5.618 0 0 1-5.613 5.623 5.617 5.617 0 0 1-5.612-5.623 5.618 5.618 0 0 1 5.612-5.623c3.1 0 5.613 2.518 5.613 5.623M47.661 40.96a5.619 5.619 0 0 1-5.613 5.623 5.618 5.618 0 0 1-5.613-5.623 5.618 5.618 0 0 1 5.613-5.624c3.1 0 5.613 2.518 5.613 5.624M39.055 95.337a5.618 5.618 0 0 1-5.613 5.623 5.618 5.618 0 0 1-5.613-5.623 5.618 5.618 0 0 1 5.613-5.623c3.1 0 5.613 2.518 5.613 5.623M237.966 81.411a5.618 5.618 0 0 1-5.613 5.623 5.617 5.617 0 0 1-5.613-5.623 5.617 5.617 0 0 1 5.613-5.623c3.1 0 5.613 2.517 5.613 5.623M50.963 212.914a5.618 5.618 0 0 1-5.613 5.623 5.618 5.618 0 0 1-5.613-5.623 5.618 5.618 0 0 1 5.613-5.624c3.1 0 5.613 2.518 5.613 5.624M121.815 211.864a5.618 5.618 0 0 1-5.613 5.624 5.618 5.618 0 0 1-5.612-5.624 5.618 5.618 0 0 1 5.612-5.623c3.1 0 5.613 2.518 5.613 5.623"/>
        <path fill="#EAC800" d="M184.75 102.94c0 3.77-6.875 6.893-7.503 10.484-.647 3.69 4.74 8.975 3.49 12.419-1.274 3.505-8.804 4.08-10.644 7.267-1.858 3.216 1.394 10.036-.978 12.864-2.378 2.836-9.649.806-12.48 3.189-2.824 2.375-2.082 9.9-5.293 11.762-3.181 1.843-9.317-2.548-12.816-1.271-3.438 1.254-5.316 8.58-9.002 9.225-3.583.63-7.84-5.604-11.604-5.604-3.764 0-8.02 6.234-11.604 5.604-3.685-.645-5.564-7.971-9.002-9.225-3.5-1.277-9.635 3.114-12.816 1.271-3.211-1.862-2.47-9.387-5.292-11.763-2.833-2.382-10.103-.352-12.481-3.189-2.372-2.828.88-9.648-.978-12.864-1.84-3.187-9.37-3.762-10.642-7.266-1.252-3.444 4.136-8.728 3.489-12.42-.628-3.59-7.504-6.713-7.504-10.483 0-3.772 6.876-6.895 7.505-10.484.646-3.692-4.742-8.976-3.49-12.42 1.273-3.505 8.802-4.08 10.642-7.268 1.858-3.215-1.394-10.035.978-12.863 2.379-2.837 9.65-.806 12.48-3.188 2.824-2.376 2.083-9.903 5.294-11.764 1.723-.998 7.481-.984 10.049-.215 2.173.65 1.163 2.072 2.766 1.486 3.438-1.254 5.317-8.579 9.002-9.225 1.714-.301 7.565-.566 9.46.84 2.066 1.534.18 4.764 2.144 4.764 3.764 0 8.02-6.233 11.604-5.604 1.693.297 6.87-.796 8.127 1.084 1.48 2.213-.984 7.464.875 8.141 3.5 1.278 6.852-1.273 12.817-1.271 2.269-.296 6.005-.489 6.431.515 1.279 3.014-3.256 9.467-1.14 11.249 2.833 2.382 10.104.352 12.482 3.188 2.371 2.83-.88 9.648.978 12.864 1.84 3.188 9.37 3.763 10.642 7.268 1.252 3.443-4.136 8.727-3.49 12.419.629 3.59 7.504 6.712 7.504 10.484"/>
        <path fill="#005696" d="M117.783 153.476l-25.825 57.089h-3.115l-7.155-27.646-23.224 10.607h-3.115l28.94-57.088z"/>
        <path fill="#0064D2" d="M120.898 153.476l-28.94 57.089-7.155-27.646-26.339 10.607 28.94-57.088z"/>
        <path fill="#005696" d="M145.36 194.381l8.203 16.184h3.987l3.169-27.647 26.337 10.609h3.987l-32.927-57.089-33.494 17.038z"/>
        <path fill="#0064D2" d="M128.61 153.476l28.94 57.089 7.155-27.646 26.339 10.607-28.94-57.088z"/>
        <path fill="#FFDF00" d="M191.005 102.94c0 3.77-6.876 6.893-7.504 10.484-.646 3.69 4.741 8.975 3.49 12.419-1.273 3.505-8.802 4.08-10.643 7.267-1.858 3.216 1.395 10.036-.977 12.864-2.38 2.836-9.65.806-12.48 3.189-2.824 2.375-2.083 9.9-5.295 11.762-3.18 1.843-9.316-2.548-12.814-1.271-3.44 1.254-5.317 8.58-9.003 9.225-3.584.63-7.84-5.604-11.605-5.604-3.762 0-8.019 6.234-11.602 5.604-3.686-.645-5.564-7.971-9.003-9.225-3.499-1.277-9.636 3.114-12.816 1.271-3.21-1.862-2.47-9.387-5.293-11.763-2.832-2.382-10.102-.352-12.48-3.189-2.372-2.828.88-9.648-.978-12.864-1.84-3.187-9.37-3.762-10.642-7.266-1.253-3.444 4.135-8.728 3.49-12.42-.629-3.59-7.505-6.713-7.505-10.483 0-3.772 6.876-6.895 7.505-10.484.645-3.692-4.743-8.976-3.49-12.42 1.273-3.505 8.802-4.08 10.643-7.268 1.857-3.215-1.395-10.035.977-12.863 2.38-2.837 9.649-.806 12.48-3.188 2.824-2.376 2.083-9.903 5.294-11.764 3.18-1.843 9.317 2.548 12.815 1.271 3.439-1.254 5.317-8.579 9.003-9.225 3.583-.629 7.84 5.604 11.602 5.604 3.765 0 8.021-6.233 11.605-5.604 3.686.646 5.564 7.971 9.003 9.225 3.498 1.278 9.635-3.113 12.815-1.271 3.211 1.862 2.47 9.389 5.293 11.764 2.832 2.382 10.102.352 12.481 3.188 2.372 2.83-.88 9.648.978 12.864 1.84 3.188 9.369 3.763 10.642 7.268 1.251 3.443-4.136 8.727-3.49 12.419.628 3.59 7.504 6.712 7.504 10.484"/>
        <path fill="#0064D2" d="M170.482 102.94c0 25.619-20.732 46.386-46.307 46.386-25.574 0-46.306-20.767-46.306-46.386 0-25.62 20.732-46.388 46.306-46.388 25.575 0 46.307 20.768 46.307 46.388"/>
        <path fill="#0D98FF" d="M121.134 56.662C96.98 58.232 77.87 78.345 77.87 102.94c0 24.594 19.11 44.705 43.265 46.276 24.156-1.57 43.266-21.682 43.266-46.276 0-24.595-19.11-44.708-43.266-46.278"/>
        <path fill="#FFDF00" d="M103.15 118.227c-1.67 1.18-4.23.426-5.717-1.684-1.488-2.111-1.342-4.78.328-5.96 1.67-1.183 4.229-.428 5.717 1.683 1.488 2.111 1.34 4.78-.328 5.96m40.106-37.448l-38.074 26.885c-3.24-2.937-7.578-3.701-10.587-1.572-3.632 2.568-3.951 8.372-.715 12.964 3.237 4.592 8.804 6.231 12.436 3.663 3.009-2.13 3.74-6.48 2.062-10.52l18.732-13.236 19.362-13.7c.505-.358.62-1.06.257-1.563l-.752-1.067-1.111-1.577a1.153 1.153 0 0 0-1.61-.277"/>
        <path fill="#FFDF00" d="M128.8 92.738l6.968 9.938c.356.508 1.055.63 1.561.274l.76-.534c.507-.356.629-1.057.273-1.565l-.845-1.205a1.129 1.129 0 0 1 .274-1.569l1.387-.975a1.123 1.123 0 0 1 1.566.273l.845 1.206a1.12 1.12 0 0 0 1.562.273l.49-.344a1.124 1.124 0 0 0 .272-1.565l-.845-1.205a1.127 1.127 0 0 1 .275-1.568l1.387-.977a1.122 1.122 0 0 1 1.565.275l.845 1.204a1.12 1.12 0 0 0 1.562.274l.76-.534c.506-.356.628-1.057.273-1.564l-6.969-9.938-13.966 9.826z"/>
    </g>
</svg>
