<svg xmlns="http://www.w3.org/2000/svg" width="237" height="238" viewBox="0 0 237 238">
    <defs>
        <linearGradient id="a" x1="50%" x2="50%" y1="22.954%" y2="75.504%">
            <stop offset="0%" stop-color="#FBF2CA"/>
            <stop offset="100%" stop-color="#FFFFF0"/>
        </linearGradient>
    </defs>
    <g fill="none" fill-rule="evenodd">
        <path fill="url(#a)" d="M118.369.787C52.996.787 0 53.747 0 119.077c0 65.33 52.996 118.29 118.369 118.29 65.373 0 118.369-52.96 118.369-118.29 0-65.33-52.996-118.29-118.37-118.29z"/>
        <path fill="#FFDF00" d="M188.432 213.504c0 6.17-5.004 11.17-11.178 11.17-6.174 0-11.179-5-11.179-11.17s5.005-11.172 11.18-11.172c6.173 0 11.177 5.001 11.177 11.172M64.194 217.456c0 4.645-3.767 8.41-8.415 8.41-4.647 0-8.415-3.765-8.415-8.41 0-4.644 3.768-8.41 8.415-8.41 4.648 0 8.415 3.766 8.415 8.41M169.82 29.71c0 4.644-3.767 8.41-8.414 8.41-4.648 0-8.416-3.766-8.416-8.41s3.768-8.41 8.416-8.41c4.647 0 8.414 3.766 8.414 8.41M86.257 22.78a5.587 5.587 0 0 1-5.59 5.585c-3.087 0-5.59-2.5-5.59-5.586a5.588 5.588 0 0 1 5.59-5.586 5.588 5.588 0 0 1 5.59 5.586M14.061 119.96a5.587 5.587 0 0 1-5.59 5.586 5.587 5.587 0 0 1-5.588-5.586 5.587 5.587 0 0 1 5.589-5.586c3.087 0 5.59 2.5 5.59 5.586M118.558 204.28a5.588 5.588 0 0 1-5.59 5.587 5.588 5.588 0 0 1-5.589-5.586 5.588 5.588 0 0 1 5.589-5.586 5.588 5.588 0 0 1 5.59 5.586M213.454 61.989a5.588 5.588 0 0 1-5.59 5.587 5.588 5.588 0 0 1-5.588-5.587 5.588 5.588 0 0 1 5.589-5.586 5.588 5.588 0 0 1 5.59 5.586M233.574 137.403a5.588 5.588 0 0 1-5.59 5.587 5.588 5.588 0 0 1-5.59-5.587 5.588 5.588 0 0 1 5.59-5.586 5.588 5.588 0 0 1 5.59 5.586M37.792 58.38a5.587 5.587 0 0 1-5.59 5.586c-3.087 0-5.589-2.501-5.589-5.586a5.588 5.588 0 0 1 5.59-5.586 5.588 5.588 0 0 1 5.59 5.586"/>
        <path fill="#EAC800" d="M198.021 180.29l-155.94 8.61c-6.92.383-12.84-4.914-13.223-11.83L24.64 100.82c-.382-6.915 4.918-12.832 11.84-13.215l155.94-8.61c6.92-.383 12.841 4.915 13.223 11.83l4.216 76.248c.382 6.917-4.918 12.834-11.839 13.215"/>
        <path fill="#FFDF00" d="M204.603 179.926l-155.94 8.61c-6.921.384-12.842-4.913-13.223-11.83l-4.217-76.248c-.382-6.916 4.918-12.833 11.84-13.215l155.94-8.61c6.92-.383 12.841 4.915 13.223 11.83l4.216 76.248c.382 6.917-4.918 12.833-11.839 13.215"/>
        <path fill="#0D98FF" d="M112.858 167.406l-57.923 3.198a4.51 4.51 0 0 1-4.755-4.253l-3.256-58.883a4.511 4.511 0 0 1 4.256-4.752l57.924-3.198a4.51 4.51 0 0 1 4.755 4.253l3.255 58.884a4.51 4.51 0 0 1-4.256 4.751M181.088 112.945l-53.98 2.98a1.478 1.478 0 0 1-1.559-1.393l-.47-8.507a1.477 1.477 0 0 1 1.394-1.557l53.981-2.98a1.478 1.478 0 0 1 1.559 1.393l.47 8.507a1.477 1.477 0 0 1-1.395 1.557"/>
        <path fill="#F4F4F4" d="M201.157 133.635l-72.848 4.022a1.479 1.479 0 0 1-1.559-1.393l-.47-8.508a1.478 1.478 0 0 1 1.395-1.557l72.848-4.023a1.48 1.48 0 0 1 1.558 1.394l.47 8.507a1.477 1.477 0 0 1-1.394 1.558M202.402 156.156l-72.848 4.022a1.479 1.479 0 0 1-1.558-1.393l-.47-8.508a1.478 1.478 0 0 1 1.394-1.557l72.848-4.023a1.48 1.48 0 0 1 1.558 1.394l.47 8.508a1.477 1.477 0 0 1-1.394 1.557"/>
        <path fill="#0064D2" d="M100.04 156.384l-33.54 1.852-2.122-38.396a1.673 1.673 0 0 1 1.579-1.762l30.196-1.667a1.674 1.674 0 0 1 1.764 1.577l2.123 38.396z"/>
        <path fill="#0D98FF" d="M87.577 156.81l-8.848.488a1.009 1.009 0 0 1-1.062-.95l-.562-10.157c-.03-.556.395-1.031.951-1.062l8.848-.489c.555-.03 1.03.395 1.062.95l.56 10.157a1.008 1.008 0 0 1-.95 1.062"/>
        <path fill="#0064D2" d="M100.68 157.515l-34.69 1.915a1.263 1.263 0 1 1-.139-2.521l34.689-1.916a1.264 1.264 0 0 1 .14 2.522M87.03 124.198l-11.147.615a1.828 1.828 0 0 1-1.926-1.723l-.515-9.313a1.827 1.827 0 0 1 1.725-1.925l11.147-.616a1.828 1.828 0 0 1 1.926 1.724l.515 9.313a1.827 1.827 0 0 1-1.725 1.925"/>
        <path fill="#0D98FF" d="M82.6 120.36l-.129-2.325-3.392.188.129 2.325a.766.766 0 0 1-.711.805.778.778 0 0 1-.818-.72l-.322-5.803a.769.769 0 0 1 .723-.806.762.762 0 0 1 .807.721l.118 2.132 3.392-.187-.118-2.132a.771.771 0 0 1 1.541-.084l.321 5.801a.778.778 0 0 1-.733.807.775.775 0 0 1-.808-.722M72.638 127.942l-2.87.158a.482.482 0 0 1-.51-.456l-.159-2.868a.484.484 0 0 1 .457-.51l2.87-.158a.484.484 0 0 1 .51.456l.16 2.868a.484.484 0 0 1-.458.51M91.177 128.898l-2.871.158a.483.483 0 0 1-.51-.456l-.159-2.869a.484.484 0 0 1 .457-.509l2.87-.159a.483.483 0 0 1 .51.456l.16 2.87a.485.485 0 0 1-.457.51M82.981 135.904l-2.87.159a.484.484 0 0 1-.51-.457l-.159-2.869a.484.484 0 0 1 .457-.51l2.87-.158a.483.483 0 0 1 .51.456l.16 2.869a.484.484 0 0 1-.458.51M93.08 141.439l-2.87.158a.483.483 0 0 1-.51-.457l-.159-2.869a.485.485 0 0 1 .457-.51l2.87-.158a.483.483 0 0 1 .51.457l.16 2.869a.485.485 0 0 1-.457.51M74.816 141.457l-2.87.158a.482.482 0 0 1-.51-.456l-.16-2.868a.484.484 0 0 1 .457-.51l2.871-.158a.483.483 0 0 1 .51.455l.159 2.87a.484.484 0 0 1-.457.51"/>
        <path fill="#005696" d="M139.207 48.605l-58.393.11a6.856 6.856 0 0 0-6.846 6.867l.038 20.321-7.291 21.413 4.017-.008 14.314-8.8 54.237-.102a6.858 6.858 0 0 0 6.845-6.868l-.049-26.092a6.858 6.858 0 0 0-6.872-6.841"/>
        <path fill="#0064D2" d="M186.604 48.516l-101.633.19a6.856 6.856 0 0 0-6.846 6.868l.039 20.32-7.432 21.414 14.314-8.8 101.633-.191a6.858 6.858 0 0 0 6.846-6.868l-.048-26.092a6.858 6.858 0 0 0-6.873-6.841"/>
        <path fill="#FFDF00" d="M91.195 59.64l2.666 5.37 5.937.85-4.288 4.193 1.026 5.906-5.315-2.779-5.305 2.8 1.003-5.91-4.303-4.178 5.935-.872zM112.332 59.6l2.665 5.37 5.938.85-4.288 4.193 1.025 5.907-5.314-2.78-5.305 2.8 1.002-5.91-4.303-4.177 5.935-.873zM133.468 59.56l2.665 5.37 5.938.85-4.287 4.193 1.025 5.907-5.315-2.78-5.305 2.8 1.003-5.91-4.303-4.177 5.934-.873zM156.32 59.516l2.665 5.37 5.938.852-4.288 4.192 1.026 5.907-5.315-2.78-5.305 2.8 1.003-5.91-4.304-4.177 5.936-.873zM179.172 59.473l2.666 5.37 5.937.852-4.288 4.192 1.026 5.907-5.315-2.78-5.305 2.8 1.003-5.91-4.303-4.177 5.935-.873z"/>
    </g>
</svg>
